<svg width="456" height="363" viewBox="0 0 456 363" fill="none" xmlns="http://www.w3.org/2000/svg">
<path d="M355.369 362.05C353.332 361.356 352.042 360.488 350.092 358.638C348.141 356.787 346.765 354.589 345.847 351.957C345.015 349.499 344.958 345.103 345.704 342.558C347.969 334.923 353.791 330.556 361.678 330.556C366.296 330.556 369.336 331.742 372.605 334.808C373.896 335.993 375.187 336.919 375.875 337.15C378.227 337.902 383.475 338.133 396.41 338.018C411.266 337.873 411.496 337.844 413.474 335.675C414.88 334.113 416.314 332.06 417.002 330.47C417.547 329.284 417.576 328.272 417.576 300.74C417.576 300.74 418.363 274.285 417.576 272.225C416.789 270.164 416.285 269.795 416.285 269.795C414.105 265.689 411.668 263.925 407.194 263.173C406.19 263.028 402.978 262.883 400.024 262.883H394.632V256.348V249.783L404.039 249.985C413.819 250.159 415.625 250.361 418.723 251.605C421.333 252.646 423.426 254.092 425.491 256.319C428.704 259.76 430.424 263.202 431.027 267.54C431.686 272.109 431.973 286.858 431.83 308.577C431.629 334.865 431.514 336.282 429.048 341.488C425.721 348.545 419.956 352.709 411.037 354.56C407.939 355.196 404.584 355.37 404.039 354.936C403.809 354.762 401.658 354.733 398.073 354.907C395.005 355.023 389.842 355.138 386.601 355.138C383.36 355.138 379.747 355.225 378.571 355.37C376.104 355.63 375.072 356.179 371.802 359.071C369.623 360.98 368.131 361.877 366.583 362.224C366.095 362.31 363.686 362.455 361.248 362.513C357.577 362.571 356.602 362.484 355.369 362.05Z" fill="#1D4E89"/>
<path d="M223.498 359.823C222.208 359.679 221.189 359.38 219.483 358.956C217.778 358.531 216.778 358.531 212.829 358.551C211.252 358.667 209.933 358.638 209.101 358.406C208.384 358.233 206.462 357.828 204.799 357.539C197.027 356.093 195.392 355.717 189.885 354.213C166.741 347.85 151.139 339.897 127.851 322.69C120.422 317.166 117.296 315.2 114.686 314.419C110.643 313.175 107.488 314.043 102.698 317.658C99.5147 320.058 92.0866 327.491 92.0866 328.243C92.0866 329.024 93.2338 330.701 95.2127 332.812C98.683 336.514 99.2853 337.873 98.7117 340.967C98.2528 343.512 97.0195 345.855 95.2987 347.474C93.0617 349.586 91.9719 350.019 88.9891 350.019C84.5437 350.019 83.9415 349.846 82.0199 348.082C80.9014 347.012 80.0123 345.855 79.41 344.582C78.5496 342.847 78.4636 342.385 78.4636 340.129L78.4636 337L80.2991 334.027C81.7331 331.221 82.0773 330.267 81.9339 329.689C81.7044 328.676 80.6719 328.445 78.607 328.85C76.456 329.313 75.5956 329.284 75.1654 328.763C74.8786 328.416 74.9359 328.127 75.5669 327.144C77.5458 324.165 85.3181 315.778 91.2835 310.168C96.3886 305.396 98.9985 303.314 100.404 302.851C102.698 301 102.698 301 106.5 297C108.5 295.5 108.545 299.329 106.5 297C111.545 293.329 116.447 288.004 119 286.5C119.717 286.066 135.852 279.917 129.743 277C131.608 276.711 129.378 278.591 131.5 277C134.081 275.033 127.851 275.29 129.743 275.348C131.636 275.406 131.722 275.203 130.805 273.353C130.403 272.572 130.174 271.415 130.059 269.535L129.887 266.874L130.977 265.081C132.267 262.912 135.193 259.818 139.896 255.653C143.309 252.617 145.718 249.638 145.718 248.423C145.718 247.556 142.248 241.049 139.667 237.087C134.189 228.613 129.829 219.475 126.359 209.121C123.606 200.792 121.856 192.434 122.545 190.67C122.975 189.571 122.573 185.233 121.885 183.411C121.025 181.213 120.824 176.326 121.426 173.029C122.344 168.171 122.545 166.349 122.344 164.7C122.028 161.924 123.692 153.595 125.728 147.724C126.13 146.596 126.531 145.063 126.617 144.283C126.703 143.531 127.22 141.882 127.765 140.668C128.309 139.453 129.543 136.445 130.518 133.987C133.099 127.393 135.078 123.518 137.63 119.99C138.892 118.255 139.867 116.664 139.81 116.49C139.724 116.317 140.47 115.189 141.445 114.003C144.141 110.764 150.68 103.621 150.967 103.621C151.11 103.621 152.544 102.291 154.121 100.642C155.728 99.0228 158.223 96.767 159.628 95.6681C161.062 94.5691 163.27 92.7761 164.561 91.7349C171.071 86.3847 178.901 81.7575 183.146 80.7453C183.949 80.5718 185.555 79.9645 186.759 79.4439C187.964 78.9234 189.828 78.2582 190.918 77.9979C192.008 77.7377 193.815 77.0725 194.904 76.5519C196.023 76.0025 197.572 75.4819 198.346 75.3951C199.149 75.3084 200.812 74.9035 202.074 74.4986C203.336 74.1227 206.233 73.4286 208.527 72.9659C215.124 71.6355 217.418 70.7679 217.418 69.6401C217.418 68.946 215.583 66.777 214.177 65.8226C211.596 64.0874 207.179 62.8439 203.508 62.8439C200.784 62.8439 196.08 63.6536 193.327 64.5791C191.979 65.0129 189.599 65.8226 188.021 66.3432C186.444 66.8348 184.264 67.7602 183.146 68.3676C182.056 68.9749 179.905 69.9293 178.413 70.5077C172.878 72.6477 170.727 73.6889 167.515 75.8579C165.708 77.0725 162.926 78.8366 161.349 79.7621C156.473 82.6251 154.81 83.7241 152.745 85.5461C149.59 88.2935 136.942 100.96 135.135 103.187C132.497 106.397 124.495 118.631 122.717 122.188C119.562 128.377 117.411 133.814 114.658 142.518C113.166 147.29 111.732 152.264 111.503 153.595C110.929 156.631 109.524 159.726 108.119 161.027C106.828 162.184 105.537 162.3 103.214 161.432C101.293 160.738 100.547 159.957 99.8015 158.02C99.3139 156.66 99.2279 156.053 99.4 154.202C99.486 152.988 99.7728 151.223 100.002 150.298C100.26 149.373 100.576 147.551 100.719 146.307C100.891 145.063 101.178 143.56 101.408 142.981C101.608 142.403 102.239 140.725 102.813 139.251C103.473 137.544 103.845 136.098 103.845 135.202C103.845 133.987 104.362 132.281 106.283 127.046C106.541 126.323 107.66 124.039 108.75 121.956C109.839 119.874 110.729 117.908 110.729 117.618C110.729 116.866 112.019 114.697 113.654 112.673C115.489 110.417 119.361 104.749 119.476 104.171C119.648 103.332 123.749 97.7214 125.814 95.5235C126.961 94.3377 129.6 91.3011 131.722 88.7851C136.053 83.6952 137.975 82.0178 148.73 73.9202C152.2 71.3174 155.785 68.57 156.731 67.847C157.649 67.0951 158.94 66.1986 159.599 65.8805C160.23 65.5334 161.693 64.6658 162.783 63.9428C163.901 63.2198 165.565 62.2655 166.511 61.8317C167.458 61.3979 170.297 60.0386 172.821 58.7951C175.345 57.5515 178.844 56.0766 180.564 55.5271C184.465 54.2835 191.319 52.2591 193.04 51.8543C193.757 51.6807 194.904 51.2469 195.621 50.871C197.658 49.8009 199.522 49.4539 203.365 49.3961C205.889 49.3671 207.352 49.2225 208.269 48.8755C210.363 48.1525 213.202 47.7476 215.181 47.9211C216.185 48.0079 222.982 48.1236 230.324 48.1814L243.66 48.2971L248.393 49.2225C251.002 49.7142 253.584 50.2926 254.129 50.495C254.674 50.6685 255.591 50.7842 256.165 50.7553C257.513 50.6396 260.897 51.4494 262.159 52.2013C262.704 52.5194 264.138 53.1267 265.314 53.5316C271.709 55.6717 281.604 60.4724 285.849 63.4223C287.397 64.5212 289.921 66.2564 291.413 67.2686C294.51 69.3509 302.971 75.9735 306.814 79.2993C307.473 79.8777 308.42 80.6586 308.907 81.0345C309.911 81.7865 314.242 86.7318 315.848 88.9297C316.422 89.7395 317.339 90.7517 317.884 91.2144C319.834 92.8339 324.481 99.5144 325.083 101.568C325.341 102.435 326.345 104.142 327.664 105.906C328.84 107.525 330.618 110.446 331.593 112.384C332.568 114.321 333.888 116.664 334.49 117.561C336.498 120.452 332.167 120.192 377.739 120.192C425.434 120.192 423.054 120.366 423.369 117.069C423.599 114.495 424.43 112.933 426.639 110.938C429.88 107.988 433.837 106.426 438.111 106.426C440.491 106.455 443.675 107.12 444.678 107.843C444.994 108.075 445.482 108.248 445.74 108.248C445.998 108.248 446.801 108.566 447.518 108.942C448.235 109.347 448.866 109.608 448.923 109.521C449.21 109.26 453.139 113.714 453.827 115.102C455.548 118.515 456.351 123.547 455.778 127.335C455.061 132.078 452.193 135.867 447.661 138.036C441.294 141.13 434.497 140.639 429.019 136.706C427.212 135.404 425.578 135.202 413.446 134.797C405.674 134.565 401.228 134.565 393.8 134.826C388.236 135.057 379.718 135.144 373.581 135.057C354.996 134.797 333.113 134.305 324.997 133.987C319.06 133.756 317.081 133.756 316.909 134.016C316.622 134.479 314.271 133.64 312.492 132.425C309.997 130.748 306.24 127.22 303.888 124.415C302.655 122.911 298.697 118.746 295.112 115.16C290.323 110.302 287.598 107.843 284.788 105.732C282.665 104.142 280.055 102.117 278.965 101.221C275.323 98.1841 264.023 92.9496 254.846 90.0576C250.974 88.8429 245.238 87.4548 238.641 86.1534C235.028 85.4304 234.339 85.3725 228.46 85.4882C223.039 85.5461 221.605 85.6907 218.279 86.3558C204.254 89.1321 199.723 90.3757 193.155 93.2099C178.155 99.6879 165.679 109.636 156.875 122.159C152.458 128.463 148.271 136.156 145.259 143.531C142.391 150.616 141.215 154.838 140.814 159.697C140.671 161.548 140.355 163.804 140.126 164.729C139.523 167.1 139.552 175.487 140.126 178.09C140.384 179.131 140.699 182.573 140.843 185.696C141.158 192.261 141.789 195.673 143.797 201.689C148.529 215.946 157.276 230.406 167.228 240.413C181.195 254.468 199.407 263.057 220.716 265.602C224.732 266.094 237.207 266.094 241.366 265.631C251.605 264.445 261.127 262.074 270.763 258.256C274.663 256.724 277.388 255.393 288.831 249.465C292.187 247.758 294.682 247.151 297.005 247.556C299.558 247.99 301.823 249.233 304.261 251.547C307.559 254.641 309.739 258.314 310.657 262.334C311.173 264.59 311.03 269.188 310.37 272.022C309.596 275.348 308.42 277.575 306.298 279.888C297.407 289.461 269.644 301.405 246.242 305.685C242.513 306.35 241.165 306.466 236.204 306.495C230.754 306.495 230.382 306.466 228.948 305.801C225.936 304.441 225.305 302.128 226.137 295.505C226.883 289.432 226.653 288.825 222.208 284.458C218.25 280.554 217.762 280.409 211.51 280.901C201.96 281.682 198.289 280.901 186.874 275.695C179.876 272.514 176.549 270.432 175.717 268.783C175.517 268.378 175.23 267.511 175.115 266.874C174.599 263.954 171.444 259.529 169.035 258.314C167.773 257.678 167.286 257.62 163.5 257.62C157.678 257.62 158.051 257.389 148.672 266.874C144.514 271.068 141.129 274.625 141.129 274.77C141.129 274.943 140.556 275.753 139.839 276.592C137.544 279.31 138.118 280.727 142.879 284.4C151.598 291.081 166.024 299.091 177.955 303.892C193.528 310.168 206.778 313.262 220.286 313.812C223.212 313.956 229.349 314.014 233.909 313.985L242.226 313.898L249.97 312.423C261.901 310.139 266.146 308.953 277.933 304.586C281.317 303.343 284.673 302.186 285.361 301.983C286.308 301.752 286.537 301.607 286.222 301.405C285.304 300.769 290.007 301.376 293.277 302.33C296.432 303.227 297.063 303.314 300.59 303.314C304.204 303.314 304.634 303.256 307.129 302.359C308.592 301.868 309.969 301.434 310.198 301.434C311.173 301.434 311.345 303.343 311.345 314.592C311.317 331.655 311.23 336.687 310.886 337.989C310.284 340.245 307.473 342.327 300.734 345.421C287.77 351.379 263.736 357.221 242.943 359.418C237.838 359.968 226.739 360.199 223.498 359.823Z" fill="url(#paint0_linear_57_31)"/>
<path d="M333.176 291.235L333.177 291.234C338.052 286.434 341.284 283.046 343.237 280.606C344.212 279.386 344.886 278.383 345.285 277.541C345.681 276.705 345.834 275.967 345.673 275.314L345.669 275.302L345.666 275.289C345.589 275.037 345.417 274.71 345.222 274.395C345.02 274.069 344.77 273.716 344.509 273.406L344.505 273.403C343.889 272.686 343.163 272.2 342.318 271.957C341.477 271.716 340.552 271.723 339.548 271.938L339.548 271.938L339.54 271.94C335.289 272.92 331.585 276.929 327.508 284.658L326.893 285.825L326.843 285.117L326.843 285.117L326.843 285.11C326.686 283.229 326.615 281.429 326.622 279.96C326.63 278.469 326.717 277.374 326.856 276.868L326.856 276.867C327.047 276.159 327.558 275.198 328.453 273.926C329.341 272.664 330.583 271.132 332.198 269.287C337.485 263.289 340.766 258.724 342.667 253.862C344.57 248.992 345.071 243.868 344.884 236.784L344.884 236.784C344.813 234.222 344.741 232.68 344.595 231.779C344.523 231.338 344.423 230.973 344.242 230.713C344.144 230.572 344.019 230.456 343.86 230.379C343.704 230.304 343.548 230.282 343.409 230.282C342.899 230.282 342.575 230.698 342.38 231.059C342.164 231.459 341.981 232.018 341.822 232.704C341.501 234.084 341.248 236.104 341.075 238.7C340.368 248.184 336.825 255.128 328.642 262.779L328.642 262.779L326.3 264.969L326.328 216.785L326.357 167.947H339.996C358.526 167.947 362.872 168.42 367.622 170.758C371.133 172.515 374.935 176.835 377.14 181.622C378.017 183.585 378.567 186.231 378.893 192.464C379.218 198.692 379.318 208.439 379.333 224.565V224.565C379.362 246.939 379.303 250.166 378.849 253.857L378.849 253.859C377.879 261.995 376.228 268.197 372.89 276.137L372.89 276.139C367.587 288.873 357.193 303.454 343.829 316.901L343.829 316.901C337.803 322.977 331.342 328.317 326.485 331.341C326.441 330.835 326.406 330.019 326.378 328.792C326.321 326.228 326.3 321.925 326.3 315.055V297.971L333.176 291.235ZM326.56 331.878C326.56 331.878 326.559 331.875 326.558 331.87C326.56 331.875 326.56 331.878 326.56 331.878Z" fill="url(#paint1_linear_57_31)" stroke="url(#paint2_linear_57_31)"/>
<path d="M191.864 300.913C188.91 300.017 177.094 295.274 171.96 292.931C164.704 289.606 160.431 286.482 158.911 283.33C158.108 281.681 158.251 281.074 160.087 278.327C161.807 275.724 163.413 274.625 165.507 274.625C166.912 274.625 166.912 274.625 172.935 277.864C174.427 278.645 178.499 280.582 181.969 282.115C200.841 290.502 200.956 290.531 201.816 292.15C202.504 293.452 202.476 296.517 201.787 297.877C199.98 301.318 196.654 302.359 191.864 300.913Z" fill="#1D4E89"/>
<path d="M120.709 251.663C119.992 251.2 118.931 250.245 118.329 249.551C115.948 246.746 112.105 240.21 111.015 237.116C110.728 236.248 109.897 234.311 109.208 232.807C108.491 231.303 107.229 228.382 106.398 226.3C105.566 224.246 104.591 222.164 104.218 221.73C103.472 220.834 102.813 218.867 102.354 216.033C102.182 214.992 101.723 213.228 101.35 212.071C100.977 210.943 100.662 209.757 100.662 209.468C100.662 209.179 100.203 207.097 99.6292 204.841L98.568 200.763L100.117 198.97C102.555 196.165 105.021 195.124 107.057 196.02C109.409 197.062 110.929 199.722 112.42 205.333C115.202 215.831 117.898 222.309 124.351 233.992C125.986 236.971 127.334 239.516 127.334 239.632C127.334 239.776 127.764 240.528 128.309 241.28C130.546 244.433 130.173 247.643 127.248 250.361C124.724 252.704 122.917 253.051 120.709 251.663Z" fill="#114E7F"/>
<path d="M239.76 204.465C235.888 204.349 231.442 204.089 229.865 203.887C220.773 202.788 214.32 197.842 211.94 190.15C211.481 188.675 211.309 187.344 211.28 185.233C211.223 176.904 215.697 170.629 223.555 168.026C224.76 167.621 229.607 167.592 230.123 167.968C230.295 168.113 231.787 168.113 233.45 167.997C239.702 167.534 269.501 167.332 277.474 167.708C283.066 167.968 288.602 167.997 297.406 167.795C304.376 167.65 309.796 167.65 310.083 167.795C310.37 167.939 310.685 168.402 310.8 168.836C311.115 169.963 311.001 193.996 310.657 197.09C310.427 199.231 310.427 199.722 310.771 199.925C311.374 200.272 311.259 201.544 310.542 202.585L309.94 203.511L305.609 203.858C303.171 204.06 291.556 204.32 279.051 204.465C254.53 204.754 250.084 204.754 239.76 204.465Z" fill="url(#paint3_linear_57_31)"/>
<path d="M423.254 192.348C420.415 191.364 417.891 190.121 415.568 188.617C414.019 187.605 413.933 187.576 411.409 187.634C409.889 187.692 407.824 187.952 406.39 188.328C404.526 188.79 403.064 188.964 400.167 188.964C396.754 188.993 396.324 188.935 395.578 188.386L394.775 187.778L394.689 181.734C394.66 178.408 394.689 175.4 394.775 175.053C395.091 173.752 396.324 173.463 402.519 173.231C409.488 172.971 409.631 172.913 411.811 169.819C414.736 165.654 415.683 164.498 417.26 163.196C419.612 161.259 422.48 159.899 425.377 159.35C430.109 158.424 437.451 162.56 441.208 168.257C443.072 171.12 443.273 172.046 443.244 177.425L443.216 182.081L442.212 183.932C441.065 186.101 438.139 189.138 435.816 190.555C432.948 192.29 430.854 192.984 428.187 193.1C426.065 193.186 425.434 193.1 423.254 192.348Z" fill="#FF0021"/>
<path d="M342.061 105.067C341.946 104.98 341.86 104.662 341.86 104.402C341.86 104.171 341.229 103.1 340.484 102.088C339.709 101.047 338.591 99.3698 337.96 98.3287C337.358 97.3165 336.612 96.2464 336.354 95.9572C336.067 95.668 335.838 95.321 335.838 95.1764C335.838 94.7426 330.503 87.715 327.348 83.9844C323.563 79.4728 316.708 72.1272 312.722 68.2519C309.165 64.8104 299.271 56.9442 295.829 54.8619C294.567 54.0811 292.703 53.0689 291.67 52.6062C290.638 52.1145 288.573 51.0445 287.082 50.1769C285.59 49.3382 283.64 48.3549 282.78 48.0079C281.919 47.6608 279.281 46.5619 276.9 45.5497C272.34 43.612 264.281 40.8936 260.696 40.0549C259.52 39.7946 257.398 39.2451 255.964 38.8692C247.188 36.5845 236.834 35.6301 219.11 35.5723C211.51 35.5144 211.711 35.5145 210.076 36.1218C208.355 36.758 204.885 37.3943 203.566 37.2786C203.049 37.2497 201.988 37.4232 201.185 37.6834C200.411 37.9437 198.604 38.3486 197.17 38.58C192.667 39.303 177.639 44.1037 171.501 46.7643C169.694 47.5452 166.855 48.7309 165.192 49.396C163.528 50.0612 160.316 51.6518 158.022 52.9243C155.727 54.1968 153.376 55.3825 152.802 55.5849L151.741 55.903L147.496 51.6807C145.173 49.3671 143.194 47.603 143.108 47.7476C142.907 48.0368 135.565 38.6956 135.393 37.9726C135.336 37.7124 134.791 36.8158 134.189 36.0061C133.586 35.1674 133.07 34.3287 133.07 34.0974C133.07 33.1719 136.397 30.1642 141.703 26.26C145.288 23.6283 148.959 21.4015 152.314 19.8398C153.634 19.2325 155.584 18.2781 156.616 17.7576C157.649 17.2081 159.37 16.4562 160.402 16.0513C161.435 15.6753 164.188 14.4028 166.54 13.275C171.702 10.7589 176.606 8.8502 182.945 6.91256C189.943 4.8014 201.931 1.85156 207.351 0.95504C211.997 0.1742 212.284 0.174204 225.42 0.145284C232.762 0.116364 240.563 0.0585257 242.771 0.0296057C246.098 -0.0571543 247.188 0.0296004 249.081 0.52124C250.343 0.86828 253.182 1.4756 255.39 1.88048C263.22 3.3554 271.709 5.61116 279.625 8.35856C284.242 9.94916 286.164 10.7589 293.104 14.0269C295.714 15.2415 299.443 16.9189 301.422 17.6997C305.466 19.3482 306.814 19.9844 308.448 21.1123C311.23 22.9921 315.36 25.6527 315.79 25.7973C316.823 26.2022 322.215 30.251 324.566 32.42C325.943 33.7214 328.266 35.5434 329.671 36.5266C335.063 40.1706 337.845 42.542 337.845 43.4674C337.845 43.9591 344.27 50.3793 344.642 50.2636C345.101 50.119 351.268 56.5393 352.902 58.8529C353.677 59.9808 355.34 62.1787 356.573 63.7693C357.807 65.3599 359.728 68.0205 360.847 69.6979C361.965 71.3752 363.686 73.8334 364.661 75.1927C367.787 79.4728 372.233 87.9753 375.129 95.1475C375.789 96.8248 376.592 98.3576 376.879 98.56C377.194 98.7625 377.424 99.2541 377.424 99.6301C377.424 99.9771 377.682 101.192 378.026 102.262L378.628 104.228L377.997 104.749C377.395 105.241 376.248 105.269 359.814 105.269C350.149 105.269 342.147 105.183 342.061 105.067ZM171.587 32.2754C173.624 31.4078 175.029 29.2677 175.058 26.983C175.086 25.2478 174.398 24.2646 172.505 23.397C170.87 22.6161 169.465 22.7029 167.543 23.6862C164.704 25.1611 163.729 26.7228 164.503 28.5736C165.048 29.904 166.826 32.073 167.601 32.3911C168.547 32.767 170.555 32.7092 171.587 32.2754ZM202.504 26.1444C202.935 25.9419 203.938 24.9297 204.741 23.8886L206.204 22.0377V19.1457C206.204 16.3694 206.175 16.2248 205.344 15.1837C204.34 13.9112 199.837 11.5687 198.403 11.5687C196.309 11.5687 192.61 14.692 191.778 17.1792C191.52 17.96 191.29 18.8565 191.29 19.1457C191.29 19.9555 193.728 24.6405 194.531 25.3924C195.908 26.6938 200.611 27.1276 202.504 26.1444Z" fill="#FF0021"/>
<path d="M367.392 356.129C367.45 356.071 368.023 355.58 368.654 355.03L369.801 354.018L368.826 355.117C368.281 355.695 367.708 356.187 367.536 356.187C367.392 356.187 367.335 356.158 367.392 356.129Z" fill="#1D4E89"/>
<path d="M28.0218 320.471C27.9644 320.413 27.3048 320.268 26.5304 320.182C25.7847 320.095 24.8383 319.892 24.4081 319.719C23.9779 319.545 23.6051 319.43 23.5477 319.459C23.519 319.459 23.2609 319.285 23.0315 319.025C22.7733 318.793 22.3431 318.591 22.0277 318.591C21.3107 318.591 16.98 314.195 16.7219 313.241C16.6358 312.836 16.4351 312.518 16.2917 312.518C16.1483 312.518 16.0335 312.315 16.0335 312.084C16.0335 311.824 15.8328 311.332 15.6033 310.985C14.5422 309.337 14.0259 303.35 14.7143 300.747C14.8003 300.371 14.9437 299.793 15.0297 299.446C15.7467 296.062 20.7371 290.336 23.4043 289.816C23.6911 289.758 23.9205 289.7 23.9205 289.671C23.9205 289.642 24.1213 289.584 24.3507 289.526C24.5802 289.469 25.0964 289.324 25.4979 289.237C28.8822 288.312 35.0197 288.774 36.6258 290.047C36.7979 290.192 36.9699 290.249 36.9699 290.134C36.9699 290.018 37.3715 290.134 37.8303 290.394C38.3179 290.654 38.6907 290.972 38.6907 291.117C38.6907 291.291 38.8341 291.406 39.0062 291.406C39.3217 291.406 40.9565 292.563 42.1323 293.662C42.5339 294.009 42.9927 294.298 43.1648 294.298C43.3369 294.298 44.0252 293.778 44.7135 293.141C45.4019 292.505 46.0041 291.985 46.0615 291.985C46.1189 291.985 46.5204 291.58 46.9506 291.059C47.3808 290.568 48.4993 289.497 49.4744 288.688C50.4209 287.878 53.4609 285.102 56.2142 282.528C64.8756 274.372 68.1451 272.059 71.6727 271.509C74.7989 271.018 79.5024 268.01 84.1485 263.556C85.181 262.573 86.0127 261.763 86.0127 261.792C86.0127 261.792 86.8445 261.011 87.8483 260.057C90.917 257.107 92.0355 256.095 92.0355 256.268C92.0355 256.355 92.5231 255.95 93.1254 255.372C94.5307 254.013 96.3375 252.567 96.3375 252.798C96.3375 252.885 96.6243 252.682 96.9972 252.335C97.5995 251.757 99.6644 250.658 100.64 250.398C100.869 250.34 101.758 250.224 102.561 250.137C103.909 249.993 104.196 250.08 105.085 250.745C105.63 251.178 106.089 251.439 106.089 251.323C106.089 251.236 106.691 251.873 107.437 252.769C109.358 255.083 109.674 256.297 108.928 258.784C108.584 259.883 108.24 260.751 108.125 260.751C108.01 260.751 107.609 261.3 107.236 261.995C106.863 262.66 106.49 263.267 106.404 263.354C106.289 263.441 105.515 264.366 104.683 265.465C103.823 266.535 102.991 267.403 102.848 267.403C102.676 267.403 102.647 267.489 102.733 267.605C102.848 267.692 102.418 268.27 101.815 268.878C101.213 269.485 100.754 270.034 100.812 270.063C100.869 270.121 98.804 272.261 96.2515 274.806C91.9208 279.086 87.0452 283.309 86.3569 283.309C86.1848 283.309 86.0127 283.395 85.9554 283.54C85.9267 283.656 85.095 284.118 84.1772 284.581C82.5138 285.391 79.9899 285.882 77.4948 285.911C75.057 285.911 72.6479 287.271 69.2349 290.481C68.604 291.059 67.3707 292.158 66.5103 292.91C65.6499 293.633 63.0114 296.149 60.6883 298.463C58.3365 300.776 56.3863 302.685 56.3003 302.685C56.2429 302.685 54.8663 303.958 53.2315 305.519C51.6254 307.081 49.2737 309.308 48.0117 310.464C46.7498 311.65 45.2011 313.125 44.5701 313.79C43.9392 314.427 42.7633 315.497 41.9889 316.133C41.1859 316.769 40.3542 317.492 40.1247 317.752C39.6659 318.244 37.5149 319.43 37.2281 319.343C37.142 319.343 36.8552 319.459 36.6258 319.661C36.3963 319.863 35.708 320.095 35.0771 320.182C33.6144 320.413 28.1939 320.644 28.0218 320.471Z" fill="#1D4E89"/>
<path d="M16.2917 267.46C14.8004 267.027 12.9648 266.304 12.2478 265.87C9.92475 264.511 5.90955 259.623 4.41819 256.326C3.75855 254.88 3.67251 254.331 3.58647 250.022C3.44307 244.614 3.64384 243.775 5.76616 239.986C9.20776 233.942 14.8577 230.327 20.9092 230.298C22.3432 230.298 24.2361 230.501 25.4406 230.819C28.9969 231.686 31.148 231.108 34.733 228.39C36.8266 226.828 39.6085 225.555 41.8456 225.179C42.8781 225.035 46.8646 224.746 50.7364 224.601C58.1645 224.283 61.0325 223.965 61.3767 223.386C61.8069 222.721 60.9465 216.388 59.0536 206.237C57.1607 196.028 57.1033 195.652 56.7592 192.413C56.5871 190.62 56.5584 189.145 56.7305 188.364C56.9886 187.265 56.4437 179.37 56.0995 179.023C56.0422 178.936 50.507 178.85 43.8245 178.821L31.6642 178.763L30.1728 179.544C29.3411 180.006 27.5916 181.076 26.2724 181.944C21.0813 185.328 17.3529 186.542 13.9686 185.906C10.4123 185.241 7.02808 183.101 3.32836 179.254C0.603757 176.391 0.173557 175.263 0.0301575 170.925C-0.113243 166.761 0.230907 164.881 1.57887 162.134C2.89815 159.473 5.22124 157.362 8.69152 155.656C11.9037 154.065 13.8252 153.631 16.9227 153.805C19.045 153.921 19.5612 154.065 21.196 154.991C22.2285 155.569 23.4904 156.35 24.0353 156.784C24.6376 157.217 25.0965 157.391 25.2112 157.217C25.3259 157.044 25.8135 157.449 26.3297 158.114C28.28 160.543 30.8038 163.059 31.9797 163.753L33.2416 164.505L43.8819 164.39L54.5221 164.303L55.0671 163.609C55.8127 162.683 56.5871 159.936 56.5297 158.403C56.4437 155.714 58.0785 146.835 60.5163 136.887C62.2944 129.599 63.2122 126.447 65.5066 119.332C67.5142 113.143 68.518 109.499 68.518 108.4C68.518 106.463 53.4036 89.2265 47.6103 84.5704C45.0291 82.4881 44.0539 81.9676 41.1286 81.1867C33.471 79.0756 28.2226 73.494 27.2188 66.4664C26.5591 61.7814 28.5667 56.1998 32.2665 52.4113C34.819 49.7796 37.7157 48.4493 42.1037 47.8709C48.528 47.0322 54.9524 49.9531 58.5947 55.3322C61.3193 59.3811 62.151 63.748 61.1185 68.8668C60.2581 73.0602 60.1721 74.2459 60.5736 75.316C60.9178 76.2414 71.7875 89.6025 73.7951 91.5401C74.5695 92.3209 74.9423 92.4655 75.5159 92.3209C76.3763 92.1185 78.0971 90.0073 79.7606 87.1153C81.5387 84.0209 83.6897 80.8686 85.009 79.4226C85.6686 78.6996 87.4755 76.3282 89.0529 74.1302C90.6016 71.9034 92.3224 69.7344 92.896 69.2717C94.4734 67.9703 95.7353 66.6689 96.7104 65.2518C97.5421 64.0661 97.6282 63.6612 97.9723 60.0462C98.5459 54.32 98.1157 49.982 96.7678 47.6684C95.9934 46.3671 94.6168 45.6151 90.4869 44.2848C85.6399 42.752 81.3093 40.2071 79.4738 37.8356C76.6058 34.1339 75.3725 30.9527 75.1718 27.0196C74.971 22.2478 76.0895 19.5582 79.7032 16.2035C81.9402 14.1212 83.4603 13.0512 86.2422 11.5763C88.2785 10.5062 88.4219 10.4773 91.1178 10.5062C95.85 10.5641 100.955 12.3571 103.88 14.931C105.085 16.001 106.376 17.823 105.945 17.823C105.859 17.823 106.117 18.3725 106.548 19.0087C107.953 21.2645 108.469 23.7227 107.867 25.4C107.724 25.776 107.752 28.2342 107.953 30.9816C108.326 36.6499 108.899 38.8189 110.62 41.1036C112.284 43.3015 113.201 43.7064 117.79 44.1113C120.888 44.4005 122.064 44.6319 123.297 45.2103C124.157 45.6151 125.075 45.9911 125.362 46.02C127.369 46.2514 130.495 51.4859 131.901 57.0096C132.589 59.6992 132.618 60.6824 132.044 63.372C131.27 67.0159 129.119 70.9491 126.337 73.7543C124.53 75.5473 122.867 76.5885 120.687 77.2247C116.528 78.4104 112.112 82.9219 106.29 91.8582C96.7678 106.521 87.5902 128.297 83.4603 146.17C82.0263 152.301 81.1085 157.796 81.0512 160.456C80.9938 162.683 81.0512 163.03 81.6248 163.638C81.9976 164.014 82.9154 164.505 83.7184 164.708C86.3856 165.402 89.8272 169.537 89.3397 171.504C88.9095 173.239 86.5864 176.015 81.51 180.845C80.5636 181.742 80.6209 183.737 81.8542 191.112C83.5463 201.205 85.5826 210.286 87.5902 216.793C88.8521 220.784 92.6379 231.021 93.2115 232.005C94.6455 234.376 93.699 235.909 86.1849 243.428C82.8006 246.84 79.8179 249.819 79.5598 250.051C79.3304 250.282 78.5273 251.178 77.8103 252.017C76.5771 253.405 76.3763 253.521 75.2004 253.521C73.9385 253.521 73.9385 253.521 73.2215 251.93C72.8487 251.034 72.5332 250.195 72.5332 250.051C72.5332 249.27 68.1165 240.738 67.1413 239.61L66.0228 238.338H62.0363C59.828 238.338 55.4973 238.367 52.3425 238.425L46.6352 238.512L44.5128 239.726C42.2471 240.999 40.8992 242.184 40.2395 243.428C39.6659 244.585 39.2357 247.592 39.0063 252.393C38.8342 256.211 38.7481 256.731 38.0025 258.293C36.9987 260.346 33.2416 264.221 30.8612 265.638C27.5916 267.576 25.9569 268.068 22.3432 268.183C19.4178 268.27 18.7295 268.183 16.2917 267.46Z" fill="url(#paint4_linear_57_31)"/>
<path d="M411.818 161.411C412.363 160.861 412.85 160.399 412.936 160.399C413.022 160.399 412.649 160.861 412.104 161.411C411.559 161.96 411.072 162.423 410.986 162.423C410.9 162.423 411.273 161.96 411.818 161.411Z" fill="#1D4E89"/>
<path d="M31.3201 136.25C30.4884 136.019 28.8823 135.383 27.7351 134.833C21.827 131.97 18.4141 126.736 18.0986 120.055C17.9552 116.556 18.4715 114.011 19.9055 111.264C21.1961 108.805 22.2572 107.504 24.2935 105.942C26.043 104.612 28.6529 103.021 28.6529 103.282C28.6529 103.368 28.997 103.253 29.4559 103.05C31.2341 102.154 37.2282 102.212 39.6373 103.137C41.5302 103.86 45.0578 106.174 46.3484 107.533C47.8971 109.21 49.8187 112.305 50.3349 114.04C51.0519 116.353 51.0519 120.894 50.3636 123.67C50.3063 123.902 50.1628 124.538 50.0481 125.058C49.9334 125.55 49.704 125.984 49.5606 125.984C49.3885 125.984 49.3311 126.099 49.4459 126.244C49.6753 126.649 48.987 128.008 48.6428 127.806C48.4707 127.719 48.4421 127.777 48.5568 127.95C49.2738 129.107 42.3906 135.498 41.2434 134.775C41.0426 134.66 40.9853 134.689 41.0713 134.862C41.186 135.036 40.9279 135.296 40.5264 135.498C40.1249 135.672 39.8667 135.701 39.9815 135.527C40.0675 135.354 39.9528 135.325 39.7233 135.412C39.4652 135.498 39.2645 135.701 39.2645 135.846C39.2645 135.99 39.1784 136.077 39.0637 136.048C38.9203 136.019 38.318 136.164 37.6871 136.337C36.167 136.8 33.1843 136.742 31.3201 136.25Z" fill="#1D4E89"/>
<defs>
<linearGradient id="paint0_linear_57_31" x1="270.778" y1="116.031" x2="198.278" y2="225.531" gradientUnits="userSpaceOnUse">
<stop stop-color="#FF0021"/>
<stop offset="0.46123" stop-color="#BB0A21"/>
<stop offset="1" stop-color="#1D4E89"/>
</linearGradient>
<linearGradient id="paint1_linear_57_31" x1="283.778" y1="104.531" x2="196.778" y2="250.031" gradientUnits="userSpaceOnUse">
<stop stop-color="#FF0021"/>
<stop offset="1" stop-color="#1D4389"/>
</linearGradient>
<linearGradient id="paint2_linear_57_31" x1="352.819" y1="167.447" x2="352.819" y2="332.124" gradientUnits="userSpaceOnUse">
<stop stop-color="#FF0000"/>
<stop offset="1" stop-color="#666666"/>
</linearGradient>
<linearGradient id="paint3_linear_57_31" x1="279.278" y1="104.031" x2="183.778" y2="251.531" gradientUnits="userSpaceOnUse">
<stop stop-color="#FF0021"/>
<stop offset="0.610452" stop-color="#990014"/>
<stop offset="1" stop-color="#1D4E89"/>
</linearGradient>
<linearGradient id="paint4_linear_57_31" x1="192.74" y1="224.531" x2="268.24" y2="94.5314" gradientUnits="userSpaceOnUse">
<stop stop-color="#1D4E89"/>
<stop offset="0.457918" stop-color="#BB0A21"/>
<stop offset="1" stop-color="#FF0021"/>
</linearGradient>
</defs>
</svg>
