<svg width="21" height="20" viewBox="0 0 21 20" fill="none" xmlns="http://www.w3.org/2000/svg">
<path d="M17.606 14.9141C17.2192 14.0414 16.6578 13.2486 15.9531 12.5801C15.2506 11.9096 14.4183 11.375 13.5024 11.0059C13.4942 11.002 13.486 11 13.4778 10.9961C14.7554 10.1172 15.586 8.68555 15.586 7.07031C15.586 4.39453 13.3096 2.22656 10.5001 2.22656C7.69048 2.22656 5.41411 4.39453 5.41411 7.07031C5.41411 8.68555 6.24468 10.1172 7.52232 10.998C7.51411 11.002 7.50591 11.0039 7.49771 11.0078C6.57896 11.377 5.75454 11.9062 5.04702 12.582C4.343 13.2511 3.78169 14.0437 3.39409 14.916C3.01331 15.77 2.80794 16.6856 2.78911 17.6133C2.78857 17.6341 2.79241 17.6549 2.80041 17.6743C2.8084 17.6937 2.8204 17.7114 2.83569 17.7263C2.85098 17.7412 2.86925 17.7531 2.88943 17.7612C2.90961 17.7693 2.93128 17.7734 2.95318 17.7734H4.18365C4.27388 17.7734 4.34566 17.7051 4.34771 17.6211C4.38872 16.1133 5.02447 14.7012 6.14829 13.6309C7.31109 12.5234 8.85533 11.9141 10.5001 11.9141C12.1448 11.9141 13.689 12.5234 14.8518 13.6309C15.9756 14.7012 16.6114 16.1133 16.6524 17.6211C16.6544 17.707 16.7262 17.7734 16.8165 17.7734H18.0469C18.0688 17.7734 18.0905 17.7693 18.1107 17.7612C18.1309 17.7531 18.1491 17.7412 18.1644 17.7263C18.1797 17.7114 18.1917 17.6937 18.1997 17.6743C18.2077 17.6549 18.2115 17.6341 18.211 17.6133C18.1905 16.6797 17.9875 15.7715 17.606 14.9141ZM10.5001 10.4297C9.55874 10.4297 8.67281 10.0801 8.0063 9.44531C7.3398 8.81055 6.97271 7.9668 6.97271 7.07031C6.97271 6.17383 7.3398 5.33008 8.0063 4.69531C8.67281 4.06055 9.55874 3.71094 10.5001 3.71094C11.4414 3.71094 12.3273 4.06055 12.9938 4.69531C13.6603 5.33008 14.0274 6.17383 14.0274 7.07031C14.0274 7.9668 13.6603 8.81055 12.9938 9.44531C12.3273 10.0801 11.4414 10.4297 10.5001 10.4297Z" fill="black" fill-opacity="0.2"/>
</svg>
